<mxfile host="app.diagrams.net" modified="2023-05-02T17:24:33.231Z" agent="Mozilla/5.0 (Windows NT 10.0; Win64; x64) AppleWebKit/537.36 (KHTML, like Gecko) Chrome/112.0.0.0 Safari/537.36" etag="yRr3UJcMTPtUe7gHWlia" version="21.2.3" type="device">
  <diagram id="AnNUeQn3ejxd8bbiGDiY" name="Page-1">
    <mxGraphModel dx="4776" dy="3404" grid="1" gridSize="10" guides="1" tooltips="1" connect="1" arrows="1" fold="1" page="1" pageScale="1" pageWidth="850" pageHeight="1100" math="0" shadow="0">
      <root>
        <mxCell id="0" />
        <mxCell id="1" parent="0" />
        <mxCell id="0XK3O6sGw86omZDmne3I-23" value="" style="rounded=1;whiteSpace=wrap;html=1;fillColor=#FFFFFF;" vertex="1" parent="1">
          <mxGeometry x="482.62" y="-790" width="1557.38" height="1520" as="geometry" />
        </mxCell>
        <mxCell id="0XK3O6sGw86omZDmne3I-14" value="" style="edgeStyle=orthogonalEdgeStyle;rounded=0;orthogonalLoop=1;jettySize=auto;html=1;entryX=0.5;entryY=0;entryDx=0;entryDy=0;exitX=0.5;exitY=1;exitDx=0;exitDy=0;" edge="1" parent="1" target="Z6KCmjoV0Uym_3jfLjyj-153">
          <mxGeometry relative="1" as="geometry">
            <mxPoint x="1315" y="240" as="sourcePoint" />
          </mxGeometry>
        </mxCell>
        <mxCell id="Z6KCmjoV0Uym_3jfLjyj-136" style="edgeStyle=orthogonalEdgeStyle;rounded=0;orthogonalLoop=1;jettySize=auto;html=1;exitX=1;exitY=0.5;exitDx=0;exitDy=0;entryX=0;entryY=0.5;entryDx=0;entryDy=0;" parent="1" source="Z6KCmjoV0Uym_3jfLjyj-125" target="Z6KCmjoV0Uym_3jfLjyj-134" edge="1">
          <mxGeometry relative="1" as="geometry" />
        </mxCell>
        <mxCell id="Z6KCmjoV0Uym_3jfLjyj-125" value="Clinformatics Data Mart" style="shape=datastore;whiteSpace=wrap;html=1;" parent="1" vertex="1">
          <mxGeometry x="580.0000000000001" y="-650" width="100" height="100" as="geometry" />
        </mxCell>
        <mxCell id="Z6KCmjoV0Uym_3jfLjyj-132" value="" style="endArrow=none;html=1;rounded=0;" parent="1" edge="1">
          <mxGeometry width="50" height="50" relative="1" as="geometry">
            <mxPoint x="945.0000000000005" y="-640" as="sourcePoint" />
            <mxPoint x="945.0000000000005" y="-640" as="targetPoint" />
            <Array as="points" />
          </mxGeometry>
        </mxCell>
        <mxCell id="Z6KCmjoV0Uym_3jfLjyj-133" value="" style="endArrow=classic;html=1;rounded=0;exitDx=0;exitDy=0;startArrow=none;" parent="1" edge="1">
          <mxGeometry width="50" height="50" relative="1" as="geometry">
            <mxPoint x="945.0000000000005" y="-600" as="sourcePoint" />
            <mxPoint x="945.0000000000005" y="-600" as="targetPoint" />
          </mxGeometry>
        </mxCell>
        <mxCell id="Z6KCmjoV0Uym_3jfLjyj-134" value="optum/data/parquet/dodr_81_202207" style="swimlane;fillColor=#99FFFF;" parent="1" vertex="1">
          <mxGeometry x="769" y="-680" width="350" height="120" as="geometry">
            <mxRectangle x="770" y="-680" width="140" height="30" as="alternateBounds" />
          </mxGeometry>
        </mxCell>
        <mxCell id="Z6KCmjoV0Uym_3jfLjyj-135" value="Required parquet files for prediction&amp;nbsp;&lt;br&gt;&lt;ol&gt;&lt;li&gt;dod_mbr_co_enroll_r -&amp;nbsp;Member Eligibility Data&lt;br&gt;&lt;/li&gt;&lt;li&gt;dod_rCCYYq#&amp;nbsp;-&amp;nbsp;Prescription Claims Data&lt;/li&gt;&lt;li&gt;dod_cCCYYq# - Inpatient Confinement Data&lt;/li&gt;&lt;/ol&gt;&lt;div&gt;--&amp;gt; raw patient data&lt;/div&gt;" style="rounded=0;whiteSpace=wrap;html=1;align=left;" parent="Z6KCmjoV0Uym_3jfLjyj-134" vertex="1">
          <mxGeometry y="20" width="350" height="100" as="geometry" />
        </mxCell>
        <mxCell id="Z6KCmjoV0Uym_3jfLjyj-156" style="edgeStyle=orthogonalEdgeStyle;rounded=0;orthogonalLoop=1;jettySize=auto;html=1;entryX=0;entryY=0.25;entryDx=0;entryDy=0;" parent="1" source="Z6KCmjoV0Uym_3jfLjyj-141" target="Z6KCmjoV0Uym_3jfLjyj-144" edge="1">
          <mxGeometry relative="1" as="geometry" />
        </mxCell>
        <mxCell id="Z6KCmjoV0Uym_3jfLjyj-141" value="Raw Patient Data" style="shape=datastore;whiteSpace=wrap;html=1;fillColor=#dae8fc;strokeColor=#6c8ebf;" parent="1" vertex="1">
          <mxGeometry x="760.3499999999999" y="-490" width="100" height="100" as="geometry" />
        </mxCell>
        <mxCell id="Z6KCmjoV0Uym_3jfLjyj-142" style="edgeStyle=orthogonalEdgeStyle;rounded=0;orthogonalLoop=1;jettySize=auto;html=1;entryX=0.5;entryY=0;entryDx=0;entryDy=0;" parent="1" source="Z6KCmjoV0Uym_3jfLjyj-135" target="Z6KCmjoV0Uym_3jfLjyj-141" edge="1">
          <mxGeometry relative="1" as="geometry" />
        </mxCell>
        <mxCell id="Z6KCmjoV0Uym_3jfLjyj-143" value="01_data_preparation.ipynb" style="swimlane;fillColor=#99FFFF;" parent="1" vertex="1">
          <mxGeometry x="940" y="-490" width="350.00000000000006" height="80" as="geometry" />
        </mxCell>
        <mxCell id="Z6KCmjoV0Uym_3jfLjyj-144" value="Identify opioid harm and non-opioid patients" style="rounded=0;whiteSpace=wrap;html=1;" parent="Z6KCmjoV0Uym_3jfLjyj-143" vertex="1">
          <mxGeometry y="20" width="350" height="60" as="geometry" />
        </mxCell>
        <mxCell id="0XK3O6sGw86omZDmne3I-16" style="edgeStyle=orthogonalEdgeStyle;rounded=0;orthogonalLoop=1;jettySize=auto;html=1;" edge="1" parent="1" source="Z6KCmjoV0Uym_3jfLjyj-153" target="0XK3O6sGw86omZDmne3I-15">
          <mxGeometry relative="1" as="geometry" />
        </mxCell>
        <mxCell id="Z6KCmjoV0Uym_3jfLjyj-153" value="03_EDA_models.ipynb" style="swimlane;fillColor=#99FFFF;" parent="1" vertex="1">
          <mxGeometry x="1146.3100000000002" y="290" width="350" height="80" as="geometry" />
        </mxCell>
        <mxCell id="Z6KCmjoV0Uym_3jfLjyj-154" value="Convert dataset into feature sets used for training dataset; train classifiers using X_train, y_train and test using X_test, y_test" style="rounded=0;whiteSpace=wrap;html=1;" parent="Z6KCmjoV0Uym_3jfLjyj-153" vertex="1">
          <mxGeometry y="20" width="350" height="60" as="geometry" />
        </mxCell>
        <mxCell id="0XK3O6sGw86omZDmne3I-4" style="edgeStyle=orthogonalEdgeStyle;rounded=0;orthogonalLoop=1;jettySize=auto;html=1;entryX=0.463;entryY=-0.018;entryDx=0;entryDy=0;entryPerimeter=0;" edge="1" parent="1" source="Z6KCmjoV0Uym_3jfLjyj-161" target="Z6KCmjoV0Uym_3jfLjyj-167">
          <mxGeometry relative="1" as="geometry" />
        </mxCell>
        <mxCell id="Z6KCmjoV0Uym_3jfLjyj-161" value="Patients prescribed opioids" style="shape=datastore;whiteSpace=wrap;html=1;" parent="1" vertex="1">
          <mxGeometry x="970" y="-250" width="290" height="100" as="geometry" />
        </mxCell>
        <mxCell id="Z6KCmjoV0Uym_3jfLjyj-169" style="edgeStyle=orthogonalEdgeStyle;rounded=0;orthogonalLoop=1;jettySize=auto;html=1;" parent="1" source="Z6KCmjoV0Uym_3jfLjyj-162" target="Z6KCmjoV0Uym_3jfLjyj-161" edge="1">
          <mxGeometry relative="1" as="geometry" />
        </mxCell>
        <mxCell id="Z6KCmjoV0Uym_3jfLjyj-162" value="All patients" style="shape=datastore;whiteSpace=wrap;html=1;" parent="1" vertex="1">
          <mxGeometry x="935" y="-382.5" width="360" height="102.5" as="geometry" />
        </mxCell>
        <mxCell id="0XK3O6sGw86omZDmne3I-5" value="" style="edgeStyle=orthogonalEdgeStyle;rounded=0;orthogonalLoop=1;jettySize=auto;html=1;entryX=0.5;entryY=0;entryDx=0;entryDy=0;" edge="1" parent="1" source="Z6KCmjoV0Uym_3jfLjyj-167" target="0XK3O6sGw86omZDmne3I-1">
          <mxGeometry relative="1" as="geometry" />
        </mxCell>
        <mxCell id="Z6KCmjoV0Uym_3jfLjyj-167" value="Non-cancer patients" style="shape=datastore;whiteSpace=wrap;html=1;" parent="1" vertex="1">
          <mxGeometry x="1200" y="-90" width="185.24" height="50" as="geometry" />
        </mxCell>
        <mxCell id="Z6KCmjoV0Uym_3jfLjyj-168" style="edgeStyle=orthogonalEdgeStyle;rounded=0;orthogonalLoop=1;jettySize=auto;html=1;" parent="1" source="Z6KCmjoV0Uym_3jfLjyj-144" target="Z6KCmjoV0Uym_3jfLjyj-162" edge="1">
          <mxGeometry relative="1" as="geometry" />
        </mxCell>
        <mxCell id="0XK3O6sGw86omZDmne3I-21" style="edgeStyle=orthogonalEdgeStyle;rounded=0;orthogonalLoop=1;jettySize=auto;html=1;" edge="1" parent="1" source="Z6KCmjoV0Uym_3jfLjyj-196">
          <mxGeometry relative="1" as="geometry">
            <mxPoint x="1580" y="490" as="targetPoint" />
            <Array as="points">
              <mxPoint x="1580" y="450" />
              <mxPoint x="1580" y="450" />
            </Array>
          </mxGeometry>
        </mxCell>
        <mxCell id="Z6KCmjoV0Uym_3jfLjyj-196" value="Prediction of opioid harm in patient" style="swimlane;fontStyle=1;childLayout=stackLayout;horizontal=1;startSize=30;horizontalStack=0;resizeParent=1;resizeParentMax=0;resizeLast=0;collapsible=1;marginBottom=0;fontSize=23;fillColor=#60a917;strokeColor=#2D7600;fontColor=#ffffff;" parent="1" vertex="1">
          <mxGeometry x="1290" y="490" width="580" height="90" as="geometry">
            <mxRectangle x="-40" y="190" width="50" height="40" as="alternateBounds" />
          </mxGeometry>
        </mxCell>
        <mxCell id="Z6KCmjoV0Uym_3jfLjyj-199" value="Probability of patient experiencing opioid harm" style="text;strokeColor=none;fillColor=none;align=left;verticalAlign=middle;spacingLeft=4;spacingRight=4;overflow=hidden;points=[[0,0.5],[1,0.5]];portConstraint=eastwest;rotatable=0;fontSize=27;" parent="Z6KCmjoV0Uym_3jfLjyj-196" vertex="1">
          <mxGeometry y="30" width="580" height="30" as="geometry" />
        </mxCell>
        <mxCell id="Z6KCmjoV0Uym_3jfLjyj-197" value="Classification" style="text;strokeColor=none;fillColor=none;align=left;verticalAlign=middle;spacingLeft=4;spacingRight=4;overflow=hidden;points=[[0,0.5],[1,0.5]];portConstraint=eastwest;rotatable=0;fontSize=27;" parent="Z6KCmjoV0Uym_3jfLjyj-196" vertex="1">
          <mxGeometry y="60" width="580" height="30" as="geometry" />
        </mxCell>
        <mxCell id="0XK3O6sGw86omZDmne3I-1" value="02_feature_engg.ipynb" style="swimlane;fillColor=#99FFFF;" vertex="1" parent="1">
          <mxGeometry x="1135.2399999999998" y="-10" width="350.00000000000006" height="80" as="geometry" />
        </mxCell>
        <mxCell id="0XK3O6sGw86omZDmne3I-2" value="Creating of additional features based on diagnosis and procedure codes" style="rounded=0;whiteSpace=wrap;html=1;" vertex="1" parent="0XK3O6sGw86omZDmne3I-1">
          <mxGeometry y="20" width="350" height="60" as="geometry" />
        </mxCell>
        <mxCell id="0XK3O6sGw86omZDmne3I-8" value="" style="edgeStyle=orthogonalEdgeStyle;rounded=0;orthogonalLoop=1;jettySize=auto;html=1;" edge="1" parent="1" source="0XK3O6sGw86omZDmne3I-2">
          <mxGeometry relative="1" as="geometry">
            <mxPoint x="1239.7619047619046" y="120" as="targetPoint" />
          </mxGeometry>
        </mxCell>
        <mxCell id="0XK3O6sGw86omZDmne3I-10" style="edgeStyle=orthogonalEdgeStyle;rounded=0;orthogonalLoop=1;jettySize=auto;html=1;" edge="1" parent="1" source="0XK3O6sGw86omZDmne3I-2">
          <mxGeometry relative="1" as="geometry">
            <mxPoint x="1395.2857142857142" y="120" as="targetPoint" />
          </mxGeometry>
        </mxCell>
        <mxCell id="0XK3O6sGw86omZDmne3I-15" value="Classifiers" style="shape=datastore;whiteSpace=wrap;html=1;" vertex="1" parent="1">
          <mxGeometry x="1520" y="390" width="110.5" height="65" as="geometry" />
        </mxCell>
        <mxCell id="0XK3O6sGw86omZDmne3I-35" value="" style="group" vertex="1" connectable="0" parent="1">
          <mxGeometry x="1172.62" y="120" width="297.38" height="120" as="geometry" />
        </mxCell>
        <mxCell id="0XK3O6sGw86omZDmne3I-32" value="" style="rounded=1;whiteSpace=wrap;html=1;fillColor=#d5e8d4;strokeColor=#82b366;movable=1;resizable=1;rotatable=1;deletable=1;editable=1;locked=0;connectable=1;" vertex="1" parent="0XK3O6sGw86omZDmne3I-35">
          <mxGeometry width="297.38" height="120" as="geometry" />
        </mxCell>
        <mxCell id="0XK3O6sGw86omZDmne3I-33" value="Experienced Opioid-related harm" style="shape=datastore;whiteSpace=wrap;html=1;movable=0;resizable=0;rotatable=0;deletable=0;editable=0;locked=1;connectable=0;" vertex="1" parent="0XK3O6sGw86omZDmne3I-35">
          <mxGeometry x="24.75" y="15" width="110.5" height="65" as="geometry" />
        </mxCell>
        <mxCell id="0XK3O6sGw86omZDmne3I-34" value="Randomly sampled non-harmed patients" style="shape=datastore;whiteSpace=wrap;html=1;movable=0;resizable=0;rotatable=0;deletable=0;editable=0;locked=1;connectable=0;" vertex="1" parent="0XK3O6sGw86omZDmne3I-35">
          <mxGeometry x="160" y="15" width="110.5" height="65" as="geometry" />
        </mxCell>
        <mxCell id="0XK3O6sGw86omZDmne3I-36" value="&lt;span style=&quot;font-size: 37px;&quot;&gt;Fixed-data Classification Flowchart&lt;/span&gt;" style="text;strokeColor=none;fillColor=none;html=1;fontSize=24;fontStyle=1;verticalAlign=middle;align=center;" vertex="1" parent="1">
          <mxGeometry x="955" y="-890" width="640" height="80" as="geometry" />
        </mxCell>
        <mxCell id="0XK3O6sGw86omZDmne3I-37" value="" style="rounded=1;whiteSpace=wrap;html=1;fillColor=#FFFFFF;" vertex="1" parent="1">
          <mxGeometry x="2460" y="-790" width="1700" height="1520" as="geometry" />
        </mxCell>
        <mxCell id="0XK3O6sGw86omZDmne3I-39" style="edgeStyle=orthogonalEdgeStyle;rounded=0;orthogonalLoop=1;jettySize=auto;html=1;exitX=1;exitY=0.5;exitDx=0;exitDy=0;entryX=0;entryY=0.5;entryDx=0;entryDy=0;" edge="1" parent="1" source="0XK3O6sGw86omZDmne3I-40" target="0XK3O6sGw86omZDmne3I-43">
          <mxGeometry relative="1" as="geometry" />
        </mxCell>
        <mxCell id="0XK3O6sGw86omZDmne3I-40" value="Clinformatics Data Mart" style="shape=datastore;whiteSpace=wrap;html=1;" vertex="1" parent="1">
          <mxGeometry x="2557.38" y="-640" width="100" height="100" as="geometry" />
        </mxCell>
        <mxCell id="0XK3O6sGw86omZDmne3I-41" value="" style="endArrow=none;html=1;rounded=0;" edge="1" parent="1">
          <mxGeometry width="50" height="50" relative="1" as="geometry">
            <mxPoint x="2922.3800000000006" y="-630" as="sourcePoint" />
            <mxPoint x="2922.3800000000006" y="-630" as="targetPoint" />
            <Array as="points" />
          </mxGeometry>
        </mxCell>
        <mxCell id="0XK3O6sGw86omZDmne3I-42" value="" style="endArrow=classic;html=1;rounded=0;exitDx=0;exitDy=0;startArrow=none;" edge="1" parent="1">
          <mxGeometry width="50" height="50" relative="1" as="geometry">
            <mxPoint x="2922.3800000000006" y="-590" as="sourcePoint" />
            <mxPoint x="2922.3800000000006" y="-590" as="targetPoint" />
          </mxGeometry>
        </mxCell>
        <mxCell id="0XK3O6sGw86omZDmne3I-43" value="optum/data/parquet/dodr_81_202207" style="swimlane;fillColor=#99FFFF;" vertex="1" parent="1">
          <mxGeometry x="2746.38" y="-670" width="350" height="120" as="geometry">
            <mxRectangle x="770" y="-680" width="140" height="30" as="alternateBounds" />
          </mxGeometry>
        </mxCell>
        <mxCell id="0XK3O6sGw86omZDmne3I-44" value="Required parquet files for prediction&amp;nbsp;&lt;br&gt;&lt;ol&gt;&lt;li&gt;dod_mbr_co_enroll_r -&amp;nbsp;Member Eligibility Data&lt;br&gt;&lt;/li&gt;&lt;li&gt;dod_rCCYYq#&amp;nbsp;-&amp;nbsp;Prescription Claims Data&lt;/li&gt;&lt;li&gt;dod_cCCYYq# - Inpatient Confinement Data&lt;/li&gt;&lt;/ol&gt;&lt;div&gt;--&amp;gt; raw patient data&lt;/div&gt;" style="rounded=0;whiteSpace=wrap;html=1;align=left;" vertex="1" parent="0XK3O6sGw86omZDmne3I-43">
          <mxGeometry y="20" width="350" height="100" as="geometry" />
        </mxCell>
        <mxCell id="0XK3O6sGw86omZDmne3I-45" style="edgeStyle=orthogonalEdgeStyle;rounded=0;orthogonalLoop=1;jettySize=auto;html=1;entryX=0;entryY=0.25;entryDx=0;entryDy=0;" edge="1" parent="1" source="0XK3O6sGw86omZDmne3I-46" target="0XK3O6sGw86omZDmne3I-49">
          <mxGeometry relative="1" as="geometry" />
        </mxCell>
        <mxCell id="0XK3O6sGw86omZDmne3I-46" value="Raw Patient Data" style="shape=datastore;whiteSpace=wrap;html=1;fillColor=#dae8fc;strokeColor=#6c8ebf;" vertex="1" parent="1">
          <mxGeometry x="2737.73" y="-480" width="100" height="100" as="geometry" />
        </mxCell>
        <mxCell id="0XK3O6sGw86omZDmne3I-47" style="edgeStyle=orthogonalEdgeStyle;rounded=0;orthogonalLoop=1;jettySize=auto;html=1;entryX=0.5;entryY=0;entryDx=0;entryDy=0;" edge="1" parent="1" source="0XK3O6sGw86omZDmne3I-44" target="0XK3O6sGw86omZDmne3I-46">
          <mxGeometry relative="1" as="geometry" />
        </mxCell>
        <mxCell id="0XK3O6sGw86omZDmne3I-48" value="04_3mon_win_data_prep.ipynb" style="swimlane;fillColor=#99FFFF;" vertex="1" parent="1">
          <mxGeometry x="2917.38" y="-480" width="350.00000000000006" height="80" as="geometry" />
        </mxCell>
        <mxCell id="0XK3O6sGw86omZDmne3I-49" value="Identify opioid harm and non-opioid patients" style="rounded=0;whiteSpace=wrap;html=1;" vertex="1" parent="0XK3O6sGw86omZDmne3I-48">
          <mxGeometry y="20" width="350" height="60" as="geometry" />
        </mxCell>
        <mxCell id="0XK3O6sGw86omZDmne3I-53" style="edgeStyle=orthogonalEdgeStyle;rounded=0;orthogonalLoop=1;jettySize=auto;html=1;entryX=0.463;entryY=-0.018;entryDx=0;entryDy=0;entryPerimeter=0;" edge="1" parent="1" source="0XK3O6sGw86omZDmne3I-54" target="0XK3O6sGw86omZDmne3I-58">
          <mxGeometry relative="1" as="geometry" />
        </mxCell>
        <mxCell id="0XK3O6sGw86omZDmne3I-54" value="Patients prescribed opioids" style="shape=datastore;whiteSpace=wrap;html=1;" vertex="1" parent="1">
          <mxGeometry x="2947.38" y="-240" width="290" height="100" as="geometry" />
        </mxCell>
        <mxCell id="0XK3O6sGw86omZDmne3I-55" style="edgeStyle=orthogonalEdgeStyle;rounded=0;orthogonalLoop=1;jettySize=auto;html=1;" edge="1" parent="1" source="0XK3O6sGw86omZDmne3I-56" target="0XK3O6sGw86omZDmne3I-54">
          <mxGeometry relative="1" as="geometry" />
        </mxCell>
        <mxCell id="0XK3O6sGw86omZDmne3I-56" value="All patients" style="shape=datastore;whiteSpace=wrap;html=1;" vertex="1" parent="1">
          <mxGeometry x="2912.38" y="-372.5" width="360" height="102.5" as="geometry" />
        </mxCell>
        <mxCell id="0XK3O6sGw86omZDmne3I-57" value="" style="edgeStyle=orthogonalEdgeStyle;rounded=0;orthogonalLoop=1;jettySize=auto;html=1;entryX=0.5;entryY=0;entryDx=0;entryDy=0;" edge="1" parent="1" source="0XK3O6sGw86omZDmne3I-58" target="0XK3O6sGw86omZDmne3I-64">
          <mxGeometry relative="1" as="geometry" />
        </mxCell>
        <mxCell id="0XK3O6sGw86omZDmne3I-58" value="Non-cancer patients" style="shape=datastore;whiteSpace=wrap;html=1;" vertex="1" parent="1">
          <mxGeometry x="3177.38" y="-80" width="185.24" height="50" as="geometry" />
        </mxCell>
        <mxCell id="0XK3O6sGw86omZDmne3I-59" style="edgeStyle=orthogonalEdgeStyle;rounded=0;orthogonalLoop=1;jettySize=auto;html=1;" edge="1" parent="1" source="0XK3O6sGw86omZDmne3I-49" target="0XK3O6sGw86omZDmne3I-56">
          <mxGeometry relative="1" as="geometry" />
        </mxCell>
        <mxCell id="0XK3O6sGw86omZDmne3I-61" value="Prediction of opioid harm in patient" style="swimlane;fontStyle=1;childLayout=stackLayout;horizontal=1;startSize=30;horizontalStack=0;resizeParent=1;resizeParentMax=0;resizeLast=0;collapsible=1;marginBottom=0;fontSize=23;fillColor=#60a917;strokeColor=#2D7600;fontColor=#ffffff;" vertex="1" parent="1">
          <mxGeometry x="3355.25" y="530" width="580" height="90" as="geometry">
            <mxRectangle x="-40" y="190" width="50" height="40" as="alternateBounds" />
          </mxGeometry>
        </mxCell>
        <mxCell id="0XK3O6sGw86omZDmne3I-62" value="Probability of patient experiencing opioid harm" style="text;strokeColor=none;fillColor=none;align=left;verticalAlign=middle;spacingLeft=4;spacingRight=4;overflow=hidden;points=[[0,0.5],[1,0.5]];portConstraint=eastwest;rotatable=0;fontSize=27;" vertex="1" parent="0XK3O6sGw86omZDmne3I-61">
          <mxGeometry y="30" width="580" height="30" as="geometry" />
        </mxCell>
        <mxCell id="0XK3O6sGw86omZDmne3I-63" value="Classification" style="text;strokeColor=none;fillColor=none;align=left;verticalAlign=middle;spacingLeft=4;spacingRight=4;overflow=hidden;points=[[0,0.5],[1,0.5]];portConstraint=eastwest;rotatable=0;fontSize=27;" vertex="1" parent="0XK3O6sGw86omZDmne3I-61">
          <mxGeometry y="60" width="580" height="30" as="geometry" />
        </mxCell>
        <mxCell id="0XK3O6sGw86omZDmne3I-64" value="04a_3mon_EDA_models.ipynb" style="swimlane;fillColor=#99FFFF;" vertex="1" parent="1">
          <mxGeometry x="3112.62" width="350.00000000000006" height="80" as="geometry" />
        </mxCell>
        <mxCell id="0XK3O6sGw86omZDmne3I-65" value="Creating of additional features based on diagnosis and procedure codes" style="rounded=0;whiteSpace=wrap;html=1;" vertex="1" parent="0XK3O6sGw86omZDmne3I-64">
          <mxGeometry y="20" width="350" height="60" as="geometry" />
        </mxCell>
        <mxCell id="0XK3O6sGw86omZDmne3I-99" value="" style="edgeStyle=orthogonalEdgeStyle;rounded=0;orthogonalLoop=1;jettySize=auto;html=1;" edge="1" parent="1" source="0XK3O6sGw86omZDmne3I-68" target="0XK3O6sGw86omZDmne3I-61">
          <mxGeometry relative="1" as="geometry" />
        </mxCell>
        <mxCell id="0XK3O6sGw86omZDmne3I-68" value="Classifiers" style="shape=datastore;whiteSpace=wrap;html=1;" vertex="1" parent="1">
          <mxGeometry x="3590" y="400" width="110.5" height="65" as="geometry" />
        </mxCell>
        <mxCell id="0XK3O6sGw86omZDmne3I-73" value="&lt;span style=&quot;font-size: 37px;&quot;&gt;3 month window Classification Flowchart&lt;/span&gt;" style="text;strokeColor=none;fillColor=none;html=1;fontSize=24;fontStyle=1;verticalAlign=middle;align=center;" vertex="1" parent="1">
          <mxGeometry x="2922.5" y="-880" width="752.38" height="80" as="geometry" />
        </mxCell>
        <mxCell id="0XK3O6sGw86omZDmne3I-94" value="" style="edgeStyle=orthogonalEdgeStyle;rounded=0;orthogonalLoop=1;jettySize=auto;html=1;" edge="1" parent="1" source="0XK3O6sGw86omZDmne3I-81">
          <mxGeometry relative="1" as="geometry">
            <mxPoint x="3475" y="250" as="targetPoint" />
            <Array as="points">
              <mxPoint x="3389" y="220" />
              <mxPoint x="3476" y="220" />
              <mxPoint x="3476" y="250" />
            </Array>
          </mxGeometry>
        </mxCell>
        <mxCell id="0XK3O6sGw86omZDmne3I-81" value="Creation of 3 month windows for each patient" style="shape=datastore;whiteSpace=wrap;html=1;" vertex="1" parent="1">
          <mxGeometry x="3290" y="130" width="197.63" height="70" as="geometry" />
        </mxCell>
        <mxCell id="0XK3O6sGw86omZDmne3I-82" value="" style="edgeStyle=orthogonalEdgeStyle;rounded=0;orthogonalLoop=1;jettySize=auto;html=1;" edge="1" parent="1" source="0XK3O6sGw86omZDmne3I-65" target="0XK3O6sGw86omZDmne3I-81">
          <mxGeometry relative="1" as="geometry" />
        </mxCell>
        <mxCell id="0XK3O6sGw86omZDmne3I-97" style="edgeStyle=orthogonalEdgeStyle;rounded=0;orthogonalLoop=1;jettySize=auto;html=1;" edge="1" parent="1" source="0XK3O6sGw86omZDmne3I-87" target="0XK3O6sGw86omZDmne3I-68">
          <mxGeometry relative="1" as="geometry" />
        </mxCell>
        <mxCell id="0XK3O6sGw86omZDmne3I-87" value="" style="rounded=1;whiteSpace=wrap;html=1;fillColor=#d5e8d4;strokeColor=#82b366;" vertex="1" parent="1">
          <mxGeometry x="3260" y="250" width="290" height="132.5" as="geometry" />
        </mxCell>
        <mxCell id="0XK3O6sGw86omZDmne3I-88" value="Experienced Opioid-related harm" style="shape=datastore;whiteSpace=wrap;html=1;" vertex="1" parent="1">
          <mxGeometry x="3284.75" y="265" width="110.5" height="65" as="geometry" />
        </mxCell>
        <mxCell id="0XK3O6sGw86omZDmne3I-89" value="Randomly sampled non-harmed patients" style="shape=datastore;whiteSpace=wrap;html=1;" vertex="1" parent="1">
          <mxGeometry x="3420" y="265" width="110.5" height="65" as="geometry" />
        </mxCell>
        <mxCell id="0XK3O6sGw86omZDmne3I-96" value="" style="edgeStyle=orthogonalEdgeStyle;rounded=0;orthogonalLoop=1;jettySize=auto;html=1;" edge="1" parent="1">
          <mxGeometry relative="1" as="geometry">
            <mxPoint x="3390" y="200" as="sourcePoint" />
            <mxPoint x="3330" y="250" as="targetPoint" />
            <Array as="points">
              <mxPoint x="3390" y="220" />
              <mxPoint x="3330" y="220" />
              <mxPoint x="3330" y="250" />
            </Array>
          </mxGeometry>
        </mxCell>
      </root>
    </mxGraphModel>
  </diagram>
</mxfile>
